<?xml version="1.0" encoding="UTF-8" standalone="no"?>
<!DOCTYPE svg PUBLIC "-//W3C//DTD SVG 1.1//EN" "http://www.w3.org/Graphics/SVG/1.1/DTD/svg11.dtd">
<svg width="100%" height="100%" viewBox="0 0 500 500" version="1.1" xmlns="http://www.w3.org/2000/svg" xmlns:xlink="http://www.w3.org/1999/xlink" xml:space="preserve" xmlns:serif="http://www.serif.com/" style="fill-rule:evenodd;clip-rule:evenodd;stroke-linejoin:round;stroke-miterlimit:2;">
    <g transform="matrix(8.33333,0,0,8.33333,-25,-33.3333)">
        <path d="M28.765,50.32L35.509,50.32L35.509,33.998L40.008,33.998L40.604,28.374L35.509,28.374L35.516,25.558C35.516,24.092 35.656,23.305 37.76,23.305L40.572,23.305L40.572,17.68L36.072,17.68C30.667,17.68 28.765,20.409 28.765,24.997L28.765,28.374L25.396,28.374L25.396,33.999L28.765,33.999L28.765,50.32ZM33,64C16.432,64 3,50.568 3,34C3,17.431 16.432,4 33,4C49.568,4 63,17.431 63,34C63,50.568 49.568,64 33,64Z" style="fill:white;"/>
    </g>
</svg>
