<?xml version="1.0" encoding="UTF-8" standalone="no"?>
<!DOCTYPE svg PUBLIC "-//W3C//DTD SVG 1.1//EN" "http://www.w3.org/Graphics/SVG/1.1/DTD/svg11.dtd">
<svg width="100%" height="100%" viewBox="0 0 500 500" version="1.1" xmlns="http://www.w3.org/2000/svg" xmlns:xlink="http://www.w3.org/1999/xlink" xml:space="preserve" xmlns:serif="http://www.serif.com/" style="fill-rule:evenodd;clip-rule:evenodd;stroke-linejoin:round;stroke-miterlimit:2;">
    <g transform="matrix(10.1527,0,0,10.1527,-37.7985,-52.3676)">
        <g>
            <path d="M38.512,24.392L38.512,19.855L37.922,19.857L33.975,19.871L33.99,24.407L38.512,24.392Z" style="fill:white;fill-rule:nonzero;"/>
            <path d="M28.225,34.868C30.823,34.868 32.938,32.755 32.938,30.157C32.938,29.132 32.604,28.182 32.045,27.409C31.19,26.223 29.797,25.444 28.225,25.444C26.653,25.444 25.262,26.223 24.405,27.409C23.846,28.182 23.514,29.132 23.514,30.157C23.514,32.755 25.627,34.868 28.225,34.868Z" style="fill:white;fill-rule:nonzero;"/>
            <path d="M28.348,5.158C14.748,5.158 3.723,16.181 3.723,29.781C3.723,43.381 14.748,54.406 28.348,54.406C41.946,54.406 52.971,43.381 52.971,29.781C52.971,16.181 41.945,5.158 28.348,5.158ZM41.611,21.945L41.611,38.37C41.611,41.222 39.289,43.542 36.437,43.542L20.012,43.542C17.159,43.542 14.839,41.222 14.839,38.37L14.839,21.945C14.839,19.092 17.159,16.772 20.012,16.772L36.437,16.772C39.289,16.772 41.611,19.092 41.611,21.945Z" style="fill:white;fill-rule:nonzero;"/>
            <path d="M35.545,30.157C35.545,34.192 32.262,37.477 28.225,37.477C24.188,37.477 20.907,34.192 20.907,30.157C20.907,29.184 21.1,28.259 21.444,27.409L17.448,27.409L17.448,38.37C17.448,39.784 18.598,40.934 20.012,40.934L36.437,40.934C37.851,40.934 39.001,39.784 39.001,38.37L39.001,27.409L35.003,27.409C35.35,28.259 35.545,29.185 35.545,30.157Z" style="fill:white;fill-rule:nonzero;"/>
        </g>
    </g>
</svg>
