<?xml version="1.0" encoding="UTF-8" standalone="no"?>
<!DOCTYPE svg PUBLIC "-//W3C//DTD SVG 1.1//EN" "http://www.w3.org/Graphics/SVG/1.1/DTD/svg11.dtd">
<svg width="100%" height="100%" viewBox="0 0 500 500" version="1.1" xmlns="http://www.w3.org/2000/svg" xmlns:xlink="http://www.w3.org/1999/xlink" xml:space="preserve" xmlns:serif="http://www.serif.com/" style="fill-rule:evenodd;clip-rule:evenodd;stroke-linejoin:round;stroke-miterlimit:2;">
    <g id="layer1">
        <path id="rect2990-1" d="M500,250C500,112.021 387.979,0 250,0C112.021,0 0,112.021 0,250C0,387.979 112.021,500 250,500C387.979,500 500,387.979 500,250ZM257.724,90C167.632,90 122.222,152.596 122.222,204.817C122.222,236.43 134.56,264.557 161.038,275.029C165.382,276.764 169.279,275.11 170.539,270.45C171.414,267.236 173.485,259.113 174.407,255.713C175.674,251.104 175.204,249.48 171.696,245.449C164.064,236.726 159.17,225.415 159.17,209.396C159.17,162.947 195.007,121.369 252.513,121.369C303.434,121.369 331.409,151.519 331.409,191.791C331.409,244.796 307.218,289.555 271.303,289.555C251.462,289.555 236.634,273.643 241.381,254.134C247.078,230.845 258.119,205.718 258.119,188.896C258.119,173.854 249.747,161.317 232.513,161.317C212.235,161.317 195.986,181.661 195.986,208.896C195.986,226.246 202.013,237.975 202.013,237.975C202.013,237.975 181.258,323.209 177.618,338.135C170.376,367.864 176.515,404.301 177.039,407.978C177.344,410.163 180.252,410.676 181.565,409.03C183.428,406.658 207.599,377.759 215.802,348.872C218.13,340.702 229.144,298.371 229.144,298.371C235.736,310.559 254.984,321.266 275.461,321.266C336.408,321.266 377.778,267.414 377.778,195.317C377.785,140.788 330.123,90 257.724,90Z" style="fill:white;"/>
    </g>
</svg>
