<?xml version="1.0" encoding="UTF-8" standalone="no"?>
<!DOCTYPE svg PUBLIC "-//W3C//DTD SVG 1.1//EN" "http://www.w3.org/Graphics/SVG/1.1/DTD/svg11.dtd">
<svg width="100%" height="100%" viewBox="0 0 500 500" version="1.1" xmlns="http://www.w3.org/2000/svg" xmlns:xlink="http://www.w3.org/1999/xlink" xml:space="preserve" xmlns:serif="http://www.serif.com/" style="fill-rule:evenodd;clip-rule:evenodd;stroke-linejoin:round;stroke-miterlimit:2;">
    <g id="layer1">
        <path id="rect2990-1" d="M500,250C500,112.021 387.979,0 250,0C112.021,0 0,112.021 0,250C0,387.979 112.021,500 250,500C387.979,500 500,387.979 500,250ZM309.85,119.95C274.379,120.849 245.925,149.881 245.925,185.575C245.925,190.713 246.476,195.737 247.6,200.55C193.034,197.809 144.657,171.673 112.275,131.95C106.624,141.642 103.375,152.932 103.375,164.975C103.375,187.75 114.983,207.829 132.6,219.6C121.843,219.256 111.704,216.292 102.85,211.375C102.845,211.648 102.85,211.946 102.85,212.225C102.85,244.029 125.488,270.534 155.525,276.575C150.016,278.069 144.214,278.875 138.225,278.875C133.99,278.875 129.883,278.473 125.875,277.7C134.235,303.781 158.45,322.774 187.175,323.3C164.706,340.91 136.44,351.4 105.675,351.4C100.381,351.4 95.138,351.111 90,350.5C119.063,369.137 153.553,380 190.625,380C311.391,380 377.425,279.959 377.425,193.2C377.425,190.355 377.373,187.494 377.25,184.675C390.073,175.438 401.205,163.867 410,150.7C398.236,155.929 385.584,159.471 372.3,161.05C385.863,152.93 396.271,140.068 401.175,124.725C388.488,132.254 374.435,137.726 359.475,140.675C347.503,127.917 330.434,119.95 311.55,119.95C310.984,119.95 310.413,119.936 309.85,119.95Z" style="fill:white;"/>
    </g>
</svg>
